# xmcd
#
# Track frame offsets:
#	150
#	17507
#	44869
#	62951
#	75991
#	91253
#	112530
#	124743
#	141031
#	165173
#	185310
#	200186
#	243886
#	273826
#	310301
#	317738
#	325485
#
# Disc length: 4433 seconds
#
# Revision: 0
# Processed by: cddbd v1.5PL3 Copyright (c) Steve Scherf et al.
# Submitted via: dBpowerAMP V4.0
#
DISCID=df114f11
DTITLE=Various Artist - Les grands thèmes de musique de western
DYEAR=2003
DGENRE=Country
TTITLE0=L'homme à l'harmonica (Il était une fois dans l'Ouest)
TTITLE1=Thème principal (Il était une fois dans l'Ouest)
TTITLE2=Duck! You sucker (Il était une fois la révolution)
TTITLE3=The good, the bad and the ugly (Le bon, la brute et le truand)
TTITLE4=For a few Dollars more (Pour quelques Dollars de plus)
TTITLE5=True Grit (Cent Dollars pour un shériff)
TTITLE6=Hang'em Right (Pendez-les haut et court)
TTITLE7=Fistfuls of Dollars (Pour une poignée de Dollars)
TTITLE8=Two mules for sister Sara (Sierra Torride)
TTITLE9=Outlaw Josey Wales (Josey Wales hors-la-loi)
TTITLE10=How the West was won (La conquête de l'Ouest)
TTITLE11=The Cowboys (Les Cowboys)
TTITLE12=Stagecoach (La diligence vers l'Ouest)
TTITLE13=Thème final (Il était une fois dans l'Ouest)
TTITLE14=Bonanza (thème de la série TV)
TTITLE15=Rawhide (thème de la série TV)
TTITLE16=Le Virginien (thème de la série TV)
EXTD=Globz38, www.gresivaudance.net
EXTT0=
EXTT1=
EXTT2=
EXTT3=
EXTT4=
EXTT5=
EXTT6=
EXTT7=
EXTT8=
EXTT9=
EXTT10=
EXTT11=
EXTT12=
EXTT13=
EXTT14=
EXTT15=
EXTT16=
PLAYORDER=
